name rise42.5664peak47.7979fall81.9185.mot
datacolumns 19
datarows 12
range 11.73495100000000 11.75329200000000
endheader
time	ground_force1_vx	ground_force1_vy	ground_force1_vz	ground_force1_px	ground_force1_py	ground_force1_pz	ground_force2_vx	ground_force2_vy	ground_force2_vz	ground_force2_px	ground_force2_py	ground_force2_pz	ground_torque1_x	ground_torque1_y	ground_torque1_z	ground_torque2_x	ground_torque2_y	ground_torque2_z	
11.73495100000000	53.00995100000000	782.52881700000000	59.85344800000000	0.27570000000000	0.00000000000000	0.11598400000000	0.86190300000000	3.59143200000000	0.35366500000000	0.00000000000000	0.00000000000000	0.00000000000000	0.00000000000000	19.30019600000000	0.00000000000000	0.00000000000000	0.04603100000000	0.00000000000000	
11.73662600000000	52.35625500000000	785.59903799999995	59.95198200000000	0.27500200000000	0.00000000000000	0.11592700000000	0.00000000000000	0.00000000000000	0.00000000000000	0.00000000000000	0.00000000000000	0.00000000000000	0.00000000000000	19.37459200000000	0.00000000000000	0.00000000000000	0.00000000000000	0.00000000000000	
11.73828500000000	51.69653200000000	788.47518400000001	60.04128300000000	0.27431800000000	0.00000000000000	0.11586900000000	0.00000000000000	0.00000000000000	0.00000000000000	0.00000000000000	0.00000000000000	0.00000000000000	0.00000000000000	19.44738900000000	0.00000000000000	0.00000000000000	0.00000000000000	0.00000000000000	
11.73995200000000	51.03173600000000	791.15515500000004	60.12144800000000	0.27364600000000	0.00000000000000	0.11581100000000	0.00000000000000	0.00000000000000	0.00000000000000	0.00000000000000	0.00000000000000	0.00000000000000	0.00000000000000	19.51841800000000	0.00000000000000	0.00000000000000	0.00000000000000	0.00000000000000	
11.74162000000000	50.36276200000000	793.63719100000003	60.19253000000000	0.27298400000000	0.00000000000000	0.11575300000000	0.00000000000000	0.00000000000000	0.00000000000000	0.00000000000000	0.00000000000000	0.00000000000000	0.00000000000000	19.58748800000000	0.00000000000000	0.00000000000000	0.00000000000000	0.00000000000000	
11.74328800000000	49.69045000000000	795.91987900000004	60.25453500000000	0.27232900000000	0.00000000000000	0.11569500000000	0.00000000000000	0.00000000000000	0.00000000000000	0.00000000000000	0.00000000000000	0.00000000000000	0.00000000000000	19.65438700000000	0.00000000000000	0.00000000000000	0.00000000000000	0.00000000000000	
11.74495900000000	49.01558500000000	798.00217199999997	60.30743100000000	0.27168100000000	0.00000000000000	0.11563700000000	0.00000000000000	0.00000000000000	0.00000000000000	0.00000000000000	0.00000000000000	0.00000000000000	0.00000000000000	19.71888600000000	0.00000000000000	0.00000000000000	0.00000000000000	0.00000000000000	
11.74662200000000	48.33889900000000	799.88339599999995	60.35114600000000	0.27103600000000	0.00000000000000	0.11557800000000	0.00000000000000	0.00000000000000	0.00000000000000	0.00000000000000	0.00000000000000	0.00000000000000	0.00000000000000	19.78073800000000	0.00000000000000	0.00000000000000	0.00000000000000	0.00000000000000	
11.74829200000000	47.66107000000000	801.56325700000002	60.38557400000000	0.27039300000000	0.00000000000000	0.11552000000000	0.00000000000000	0.00000000000000	0.00000000000000	0.00000000000000	0.00000000000000	0.00000000000000	0.00000000000000	19.83968300000000	0.00000000000000	0.00000000000000	0.00000000000000	0.00000000000000	
11.74995900000000	46.98273000000000	803.04185299999995	60.41057600000000	0.26975000000000	0.00000000000000	0.11546200000000	0.00000000000000	0.00000000000000	0.00000000000000	0.00000000000000	0.00000000000000	0.00000000000000	0.00000000000000	19.89545000000000	0.00000000000000	0.00000000000000	0.00000000000000	0.00000000000000	
11.75162300000000	46.30446300000000	804.31967899999995	60.42598500000000	0.26910400000000	0.00000000000000	0.11540300000000	0.00000000000000	0.00000000000000	0.00000000000000	0.00000000000000	0.00000000000000	0.00000000000000	0.00000000000000	19.94775700000000	0.00000000000000	0.00000000000000	0.00000000000000	0.00000000000000	
11.75329200000000	45.62680700000000	805.39762599999995	60.43161100000000	0.26845400000000	0.00000000000000	0.11534500000000	0.00000000000000	0.00000000000000	0.00000000000000	0.00000000000000	0.00000000000000	0.00000000000000	0.00000000000000	19.99631700000000	0.00000000000000	0.00000000000000	0.00000000000000	0.00000000000000	
